<?xml version="1.0" encoding="UTF-8"?>
<!DOCTYPE svg PUBLIC "-//W3C//DTD SVG 1.1//EN" "http://www.w3.org/Graphics/SVG/1.1/DTD/svg11.dtd">
<!-- Creator: CorelDRAW 2020 (64-Bit) -->
<svg xmlns="http://www.w3.org/2000/svg" xml:space="preserve" width="2.1in" height="2.583in" version="1.1" style="shape-rendering:geometricPrecision; text-rendering:geometricPrecision; image-rendering:optimizeQuality; fill-rule:evenodd; clip-rule:evenodd"
viewBox="0 0 2100 2583"
 xmlns:xlink="http://www.w3.org/1999/xlink"
 xmlns:xodm="http://www.corel.com/coreldraw/odm/2003">
 <defs>
  <style type="text/css">
   <![CDATA[
    .fil0 {fill:#FEFEFE;fill-rule:nonzero}
   ]]>
  </style>
 </defs>
 <g id="Layer_x0020_1">
  <metadata id="CorelCorpID_0Corel-Layer"/>
  <g>
   <path class="fil0" d="M358.08 2135.23c0,26 0,48.31 -1.4,60.17 -1.13,8.18 -2.54,14.41 -8.2,15.53 -2.54,0.57 -5.93,1.13 -10.15,1.13 -3.4,0 -4.53,0.85 -4.53,2.25 0,2 1.99,2.83 5.63,2.83 5.67,0 13.02,-0.58 19.52,-0.58 6.76,-0.25 12.97,-0.25 16.09,-0.25 4.22,0 12.69,0.25 21.18,0.83 8.18,0.29 16.36,0.85 19.75,0.85 51.96,0 75.4,-31.33 75.4,-61.57 0,-33.04 -28.25,-53.07 -51.39,-60.99 15.53,-12.43 28.79,-26.25 28.79,-49.43 0,-14.96 -9.03,-42.35 -60.14,-42.35 -9.61,0 -20.61,0.85 -34.45,0.85 -5.64,0 -23.42,-0.85 -38.39,-0.85 -4.25,0 -6.22,0.56 -6.22,2.56 0,1.97 1.68,2.53 4.81,2.53 3.96,0 8.74,0.28 11.02,0.85 9.3,1.99 11.57,6.52 12.14,16.1 0.56,9.06 0.56,16.94 0.56,59.87l0 49.68zm33.89 -114.64c0,-3.1 0.56,-4.25 2.54,-4.79 2.83,-0.58 5.36,-0.58 9.32,-0.58 24.28,0 35.29,24.86 35.29,43.79 0,13.85 -4.22,23.98 -11.57,29.91 -4.81,4.25 -11.02,5.38 -20.32,5.38 -6.52,0 -10.74,-0.29 -13.29,-0.85 -1.13,-0.28 -1.97,-0.85 -1.97,-3.1l0 -69.76zm64.67 148.54c0,29.38 -21.47,36.15 -34.17,36.15 -6.5,0 -12.99,-0.29 -20.61,-3.4 -9.04,-3.68 -9.89,-8.46 -9.89,-27.11l0 -66.93c0,-1.4 0.56,-1.97 1.69,-1.97 4.24,0 7.06,0 12.14,0.28 11.02,0.57 17.5,2.56 23.46,6.81 21.44,14.96 27.37,38.67 27.37,56.18zm178.46 51.96c71.74,0 116.92,-51.13 116.92,-115.78 0,-64.67 -43.78,-105.61 -114.08,-105.61 -84.71,0 -116.61,62.4 -116.61,110.69 0,49.99 32.75,110.7 113.78,110.7zm11.89 -14.13c-54.24,0 -86.71,-46.58 -86.71,-105.32 0,-70.32 37,-88.39 69.49,-88.39 46.3,0 82.72,39.25 82.72,102.5 0,81.61 -45.75,91.21 -65.5,91.21zm241.14 -61.83c1.42,0 2.25,0.56 2.82,1.97l22.58 58.18c1.44,3.37 -0.56,5.93 -2.52,6.5 -2.83,0.26 -3.96,0.83 -3.96,2.52 0,2 3.39,2 8.47,2.25 22.59,0.58 43.21,0.58 53.37,0.58 10.43,0 12.99,-0.58 12.99,-2.83 0,-1.96 -1.42,-2.25 -3.68,-2.25 -3.39,0 -7.63,-0.26 -11.85,-1.13 -5.93,-1.41 -14.14,-5.36 -24.86,-30.79 -18.07,-42.9 -63.26,-155.86 -70.03,-171.4 -2.83,-6.48 -4.5,-9.03 -7.06,-9.03 -2.83,0 -4.53,3.1 -7.92,11.31l-70.88 175.06c-5.65,14.14 -11.01,23.74 -24,25.43 -2.26,0.29 -6.22,0.56 -8.76,0.56 -2.25,0 -3.37,0.57 -3.37,2.25 0,2.25 1.7,2.83 5.36,2.83 14.68,0 30.21,-0.83 33.33,-0.83 8.75,0 20.89,0.83 29.91,0.83 3.11,0 4.8,-0.58 4.8,-2.83 0,-1.68 -0.85,-2.25 -4.22,-2.25l-4.25 0c-8.75,0 -11.3,-3.67 -11.3,-8.76 0,-3.37 1.42,-10.14 4.25,-17.22l15.25 -38.67c0.54,-1.7 1.13,-2.26 2.54,-2.26l62.96 0zm-57.32 -14.14c-1.12,0 -1.4,-0.83 -1.12,-1.96l25.97 -69.2c0.28,-1.12 0.85,-2.53 1.7,-2.53 0.85,0 1.13,1.41 1.41,2.53l25.4 69.49c0.31,0.83 0,1.67 -1.4,1.67l-51.96 0zm199.93 4.24c0,26 0,48.31 -1.41,60.17 -0.85,8.18 -2.56,14.41 -8.19,15.53 -2.54,0.57 -5.93,1.13 -10.15,1.13 -3.4,0 -4.53,0.85 -4.53,2.25 0,2 1.96,2.83 5.65,2.83 11.28,0 29.08,-0.83 35.57,-0.83 7.91,0 25.71,0.83 44.35,0.83 3.08,0 5.35,-0.83 5.35,-2.83 0,-1.41 -1.42,-2.25 -4.52,-2.25 -4.24,0 -10.46,-0.56 -14.39,-1.13 -8.49,-1.12 -10.17,-7.35 -11.04,-15.25 -1.39,-12.14 -1.39,-34.44 -1.39,-60.44l0 -115.76 35.56 0.85c25.15,0.57 32.78,8.47 33.33,15.81l0.28 3.1c0.29,4.25 0.85,5.65 3.12,5.65 1.68,0 2.25,-1.69 2.53,-4.5 0,-7.35 0.85,-26.83 0.85,-32.76 0,-4.24 -0.29,-5.93 -2.25,-5.93 -1.13,0 -3.4,0.57 -7.63,1.4 -4.24,0.57 -10.44,1.42 -19.48,1.42l-111.82 0c-9.33,0 -20.06,-0.57 -28.24,-1.42 -7.08,-0.56 -9.89,-3.37 -12.17,-3.37 -1.68,0 -2.53,1.69 -3.37,5.37 -0.57,2.25 -5.93,27.94 -5.93,32.46 0,3.11 0.57,4.51 2.53,4.51 1.71,0 2.56,-1.13 3.13,-3.39 0.56,-2.25 1.97,-5.64 4.8,-9.87 4.24,-6.21 11.02,-7.64 27.39,-8.19l42.07 -1.13 0 115.76zm162.94 0c0,27.4 0,49.71 -1.42,61.58 -0.85,8.18 -2.54,12.99 -8.18,14.11 -2.57,0.57 -5.94,1.13 -10.18,1.13 -3.37,0 -4.53,0.85 -4.53,2.25 0,2 2,2.83 5.65,2.83 11.3,0 29.08,-0.83 35.59,-0.83 7.63,0 25.41,0.83 44.04,0.83 3.11,0 5.36,-0.83 5.36,-2.83 0,-1.41 -1.41,-2.25 -4.53,-2.25 -4.21,0 -10.43,-0.56 -14.39,-1.13 -8.46,-1.12 -10.44,-6.2 -11.29,-13.85 -1.13,-12.14 -1.13,-34.44 -1.13,-61.85l0 -49.68c0,-42.93 0,-50.82 0.57,-59.87 0.56,-9.87 2.8,-14.67 10.46,-16.1 3.36,-0.57 5.61,-0.85 8.44,-0.85 2.83,0 4.53,-0.56 4.53,-2.82 0,-1.71 -2.25,-2.26 -5.93,-2.26 -10.74,0 -27.39,0.85 -34.44,0.85 -8.21,0 -25.99,-0.85 -36.74,-0.85 -4.5,0 -6.76,0.56 -6.76,2.26 0,2.26 1.71,2.82 4.51,2.82 3.41,0 7.06,0.28 10.18,1.13 6.21,1.43 9.04,6.24 9.58,15.82 0.59,9.06 0.59,16.94 0.59,59.87l0 49.68zm140.43 -74.26l0.85 0c5.08,5.37 36.42,39.82 67.18,70.33 29.36,29.08 65.5,66.07 83.25,83 3.09,3.12 6.48,6.22 9.58,6.22 2.56,0 3.68,-2.54 3.68,-8.74l3.11 -178.18c0.28,-15.83 2.53,-21.76 10.46,-24.03 3.37,-0.85 5.64,-0.85 8.46,-0.85 3.39,0 5.08,-0.85 5.08,-2.53 0,-2.28 -2.83,-2.56 -6.5,-2.56 -13.85,0 -24.56,0.85 -27.67,0.85 -5.93,0 -19.5,-0.85 -34.14,-0.85 -4.21,0 -7.33,0.28 -7.33,2.56 0,1.68 1.13,2.53 4.53,2.53 3.93,0 10.74,0 14.9,1.71 6.79,2.82 9.33,8.18 9.63,25.42l2.8 126.78 -1.42 0c-4.79,-4.53 -42.86,-45.18 -62.07,-64.37 -41.17,-40.94 -84.1,-86.13 -87.5,-89.8 -4.85,-5.09 -7.38,-8.75 -10.49,-8.75 -2.82,0 -3.67,3.94 -3.67,9.6l-2.54 166.32c-0.29,24.58 -1.41,32.76 -8.76,35.03 -3.94,1.14 -9.04,1.4 -12.68,1.4 -2.83,0 -4.53,0.57 -4.53,2.25 0,2.56 2.53,2.83 6.21,2.83 14.67,0 27.96,-0.83 30.49,-0.83 5.43,0 16.71,0.83 35.07,0.83 3.94,0 6.5,-0.58 6.5,-2.83 0,-1.68 -1.7,-2.25 -4.79,-2.25 -4.54,0 -9.9,-0.26 -14.71,-1.97 -5.64,-1.98 -9.3,-9.32 -9.89,-31.35l-3.1 -117.76zm423.19 106.19c0,-14.12 0,-25.4 0.31,-33.9 0.28,-9.89 3.1,-14.68 10.74,-16.1 3.37,-0.56 5.35,-0.83 7.61,-0.83 1.97,0 3.67,-0.57 3.67,-2.25 0,-2.28 -1.97,-2.85 -5.65,-2.85 -9.31,0 -24.29,0.85 -33.03,0.85 -8.49,0 -26.26,-0.85 -40.96,-0.85 -3.94,0 -5.92,0.57 -5.92,2.85 0,1.68 1.7,2.25 4.22,2.25 3.96,0 8.76,0.28 11.01,0.83 9.33,2 11.88,6.5 12.14,16.1 0.29,8.5 0.29,19.2 0.29,33.33l0 26.56c0,4.78 -1.13,8.46 -5.36,10.43 -6.78,3.13 -16.67,3.13 -24.02,3.13 -59.57,0 -98.26,-45.47 -98.26,-106.19 0,-34.74 10.18,-55.89 25.97,-69.18 19.78,-16.39 40.39,-17.52 55.92,-17.52 31.93,0 54.5,12.99 62.97,22.04 7.36,7.89 8.76,16.93 9.6,23.42 0.29,2.28 0.86,3.67 2.82,3.67 2.26,0 3.13,-1.39 3.13,-5.92 0,-35.3 1.97,-43.21 1.97,-46.3 0,-1.99 -0.57,-3.11 -3.96,-3.39 -6.47,-0.28 -16.36,-1.99 -22.29,-3.13 -5.65,-1.13 -30.51,-4.5 -50,-4.5 -23.72,0 -48.83,1.97 -75.94,18.35 -25.71,15.56 -49.14,47.17 -49.14,92.35 0,77.94 61.28,110.7 130.46,110.7 22.03,0 49.7,-3.11 68.04,-12.71 3.39,-1.97 3.67,-2.54 3.67,-10.18l0 -31.04zm-1382.05 -237.69c-0.9,6.14 -2.35,13.19 -7.42,14.28 -2.71,0.56 -3.97,0.56 -5.41,0.56 -1.8,0 -2.89,0.35 -2.89,1.26 0,1.63 1.43,1.98 3.25,1.98 5.79,0 14.47,-0.54 17.9,-0.54 3.25,0 11.39,0.54 18.98,0.54 2.72,0 4.36,-0.36 4.36,-1.98 0,-0.92 -1.28,-1.26 -2.72,-1.26 -1.82,0 -4.32,-0.2 -7.58,-0.92 -3.08,-0.72 -5.42,-2.35 -5.42,-5.78 0,-2.9 0.17,-5.25 0.52,-8.51l9.42 -70.54 0.71 0c6.33,13.57 17.19,34.92 18.82,38.71 2.17,5.06 16.46,32.75 20.8,41.06 2.89,5.43 4.71,9.06 6.33,9.06 1.63,0 2.53,-1.64 6.68,-10.14l39.44 -80.67 0.72 0 10.85 78.69c0.74,5.06 0.2,7.4 -0.89,7.76 -1.28,0.54 -2,1.08 -2,2 0,1.08 1.08,1.63 5.25,1.99 7.24,0.54 32.21,0.9 36.72,0.9 2.53,0 4.71,-0.54 4.71,-1.99 0,-1.08 -1.28,-1.28 -2.91,-1.28 -2.35,0 -5.97,-0.17 -11.22,-1.81 -5.43,-1.62 -7.22,-6.87 -8.86,-18.26l-16.46 -110.71c-0.54,-3.8 -1.63,-5.61 -3.26,-5.61 -1.63,0 -2.52,1.46 -3.97,4.35l-49.21 101.85 -49.38 -100.59c-2.33,-4.71 -3.43,-5.61 -4.89,-5.61 -1.44,0 -2.52,1.63 -3.06,4.71l-17.93 116.5zm301.73 -28.04c0.91,0 1.44,0.35 1.81,1.27l14.47 37.25c0.9,2.18 -0.36,3.81 -1.63,4.17 -1.81,0.2 -2.53,0.54 -2.53,1.63 0,1.28 2.17,1.28 5.43,1.46 14.47,0.36 27.67,0.36 34.18,0.36 6.7,0 8.32,-0.36 8.32,-1.82 0,-1.25 -0.9,-1.43 -2.35,-1.43 -2.17,0 -4.89,-0.2 -7.61,-0.74 -3.79,-0.91 -9.03,-3.43 -15.9,-19.72 -11.59,-27.48 -40.53,-99.85 -44.88,-109.79 -1.8,-4.17 -2.89,-5.79 -4.51,-5.79 -1.82,0 -2.9,2 -5.07,7.24l-45.4 112.17c-3.61,9.03 -7.04,15.18 -15.37,16.28 -1.46,0.17 -3.97,0.36 -5.6,0.36 -1.46,0 -2.18,0.35 -2.18,1.43 0,1.46 1.1,1.82 3.43,1.82 9.42,0 19.36,-0.54 21.36,-0.54 5.6,0 13.37,0.54 19.17,0.54 1.99,0 3.07,-0.36 3.07,-1.82 0,-1.08 -0.54,-1.43 -2.71,-1.43l-2.71 0c-5.61,0 -7.24,-2.36 -7.24,-5.61 0,-2.18 0.89,-6.52 2.71,-11.03l9.76 -24.79c0.38,-1.09 0.72,-1.44 1.64,-1.44l40.33 0zm-36.72 -9.04c-0.72,0 -0.91,-0.54 -0.72,-1.28l16.64 -44.32c0.19,-0.71 0.54,-1.63 1.08,-1.63 0.54,0 0.74,0.92 0.9,1.63l16.28 44.52c0.19,0.54 0,1.08 -0.89,1.08l-33.29 0zm192.65 -29.13c0,-27.5 0,-32.57 0.36,-38.36 0.36,-6.33 1.82,-9.4 6.7,-10.3 2.18,-0.36 5.07,-0.54 7.06,-0.54 2.17,0 3.25,-0.36 3.25,-1.63 0,-1.28 -1.25,-1.62 -3.79,-1.62 -7.06,0 -20.26,0.54 -24.59,0.54 -4.89,0 -16.28,-0.54 -24.8,-0.54 -2.7,0 -3.98,0.35 -3.98,1.62 0,1.27 1.08,1.63 3.08,1.63 2.36,0 4.53,0.18 5.97,0.54 5.96,1.26 7.42,4.17 7.78,10.3 0.36,5.8 0.36,10.86 0.36,38.36l0 31.83c0,16.64 0,30.93 -0.9,38.53 -0.74,5.24 -1.63,9.22 -5.25,9.94 -1.63,0.37 -3.8,0.74 -6.52,0.74 -2.17,0 -2.9,0.54 -2.9,1.43 0,1.28 1.28,1.82 3.62,1.82 3.63,0 8.33,-0.36 12.49,-0.36 4.35,-0.18 8.32,-0.18 10.32,-0.18 7.4,0 13.93,0.18 22.07,0.54 8.14,0.18 17.53,0.54 30.57,0.54 9.41,0 10.31,-0.9 11.39,-4.89 1.46,-5.24 2.71,-18.82 2.71,-20.79 0,-2.17 -0.17,-3.08 -1.44,-3.08 -1.44,0 -1.8,1.08 -1.98,2.71 -0.36,3.43 -2.53,8.51 -4.7,10.86 -4.54,4.88 -11.58,5.07 -21.18,5.07 -14.11,0 -18.8,-1.28 -21.87,-3.98 -3.8,-3.26 -3.8,-15.74 -3.8,-38.89l0 -31.83zm141.09 31.83c0,16.64 0,30.93 -0.9,38.53 -0.74,5.24 -1.63,9.22 -5.25,9.94 -1.62,0.37 -3.79,0.74 -6.5,0.74 -2.18,0 -2.9,0.54 -2.9,1.43 0,1.28 1.26,1.82 3.61,1.82 3.63,0 8.33,-0.36 12.49,-0.36 4.35,-0.18 8.32,-0.18 10.32,-0.18 4.52,0 10.85,0.54 17.72,1.08 6.86,0.54 14.3,1.08 20.8,1.08 33.46,0 52.29,-12.83 60.61,-21.35 10.11,-10.31 19.72,-27.68 19.72,-50.46 0,-21.53 -8.51,-36.54 -17.56,-45.96 -19.71,-20.61 -49.94,-20.61 -72.54,-20.61 -10.85,0 -22.23,0.54 -27.86,0.54 -5.06,0 -16.44,-0.54 -26.04,-0.54 -2.71,0 -3.98,0.35 -3.98,1.62 0,1.27 1.08,1.63 3.08,1.63 2.54,0 5.61,0.18 7.06,0.54 5.96,1.26 7.42,4.17 7.78,10.3 0.36,5.8 0.36,10.86 0.36,38.36l0 31.83zm22.63 -34.74c0,-14.28 0,-30 0.17,-36.18 0,-1.98 0.54,-2.89 2.18,-3.61 1.44,-0.72 8.13,-1.26 11.75,-1.26 14.11,0 34.74,2.17 51.37,18.08 7.78,7.42 17.36,22.25 17.36,45.24 0,18.61 -3.61,35.08 -15.18,45.04 -10.87,9.39 -23.17,13.02 -41.61,13.02 -14.31,0 -21.36,-3.79 -23.7,-7.24 -1.46,-1.98 -1.8,-9.22 -2,-13.75 -0.18,-3.44 -0.35,-17.38 -0.35,-36.53l0 -22.8zm200.96 34.74c0,17.56 0,31.83 -0.9,39.43 -0.54,5.25 -1.64,8.32 -5.26,9.04 -1.63,0.37 -3.78,0.74 -6.5,0.74 -2.18,0 -2.89,0.54 -2.89,1.43 0,1.28 1.26,1.82 3.63,1.82 7.22,0 18.63,-0.54 22.79,-0.54 4.87,0 16.25,0.54 28.22,0.54 1.97,0 3.43,-0.54 3.43,-1.82 0,-0.89 -0.93,-1.43 -2.89,-1.43 -2.71,0 -6.71,-0.36 -9.25,-0.74 -5.43,-0.72 -6.7,-3.97 -7.24,-8.86 -0.72,-7.78 -0.72,-22.06 -0.72,-39.61l0 -31.83c0,-27.5 0,-32.57 0.36,-38.36 0.36,-6.33 1.83,-9.4 6.71,-10.3 2.15,-0.36 3.63,-0.54 5.43,-0.54 1.81,0 2.89,-0.36 2.89,-1.82 0,-1.08 -1.44,-1.43 -3.79,-1.43 -6.9,0 -17.54,0.54 -22.08,0.54 -5.24,0 -16.64,-0.54 -23.53,-0.54 -2.89,0 -4.32,0.35 -4.32,1.43 0,1.46 1.07,1.82 2.87,1.82 2.17,0 4.54,0.18 6.51,0.72 3.99,0.9 5.79,3.98 6.17,10.12 0.36,5.8 0.36,10.86 0.36,38.36l0 31.83zm164.96 43.96c3.46,8.5 4.54,11.03 6.87,11.03 2.53,0 3.61,-2.89 8.32,-13.39 3.99,-9.03 12.47,-28.75 24.06,-55.17 9.78,-22.25 14.65,-32.01 21.71,-49.03 4.89,-11.57 7.63,-14.65 9.96,-16.28 3.25,-2.17 7.06,-2.17 8.85,-2.17 1.82,0 2.9,-0.36 2.9,-1.63 0,-1.28 -1.44,-1.62 -3.79,-1.62 -5.43,0 -13.92,0.54 -17.01,0.54 -2.35,0 -9.93,-0.54 -18.99,-0.54 -3.44,0 -5.07,0.35 -5.07,1.8 0,1.26 1.44,1.44 3.09,1.44 2.35,0 5.06,0.18 7.22,0.91 1.63,0.54 2.36,1.98 2.36,3.44 0,1.63 -0.74,4.33 -1.63,6.71 -4.35,11.92 -27.86,70.17 -35.65,90.06l-0.71 0 -31.12 -82.12c-2.5,-6.52 -4.15,-11.57 -4.15,-13.93 0,-1.62 0.57,-2.89 1.82,-3.79 1.43,-1.08 4.14,-1.26 7.04,-1.26 1.64,0 2.74,-0.36 2.74,-1.63 0,-1.28 -2.01,-1.62 -4.18,-1.62 -9.03,0 -17.71,0.54 -22.25,0.54 -6.33,0 -16.64,-0.54 -26.21,-0.54 -2.72,0 -4.72,0.17 -4.72,1.62 0,1.09 0.57,1.63 2.19,1.63 1.43,0 4.31,0 7.06,0.72 6.49,1.82 9.56,3.79 13.72,13.75l45.58 110.53zm156.29 -43.96c0,16.64 0,30.93 -0.9,38.53 -0.71,5.24 -1.63,9.22 -5.24,9.94 -1.64,0.37 -3.82,0.74 -6.53,0.74 -2.17,0 -2.89,0.54 -2.89,1.43 0,1.28 1.26,1.82 3.63,1.82 3.61,0 8.3,-0.36 12.47,-0.36 4.35,-0.18 8.33,-0.18 10.3,-0.18 5.43,0 11.04,0.18 18.82,0.54 7.78,0.18 17.72,0.54 31.31,0.54 6.86,0 8.48,0 9.76,-4.71 0.89,-3.61 2.35,-15.92 2.35,-20.08 0,-1.81 0,-3.25 -1.46,-3.25 -1.25,0 -1.63,0.74 -1.97,2.71 -1.28,7.42 -3.44,11.22 -8.14,13.39 -4.7,2.17 -12.3,2.17 -17.01,2.17 -18.44,0 -21.35,-2.71 -21.71,-15.18 -0.18,-5.25 0,-21.9 0,-28.04l0 -14.29c0,-1.08 0.18,-1.81 1.08,-1.81 4.35,0 22.25,0.17 25.7,0.54 6.69,0.72 9.24,3.43 10.12,7.06 0.54,2.35 0.54,4.71 0.74,6.5 0,0.92 0.35,1.64 1.63,1.64 1.63,0 1.63,-2 1.63,-3.43 0,-1.28 0.54,-8.52 0.72,-12.14 0.72,-9.22 1.44,-12.11 1.44,-13.19 0,-1.07 -0.54,-1.44 -1.26,-1.44 -0.9,0 -1.64,0.9 -2.89,2.35 -1.64,1.82 -4.35,2.36 -8.68,2.71 -4.17,0.36 -24.97,0.36 -28.94,0.36 -1.1,0 -1.28,-0.71 -1.28,-1.98l0 -45.76c0,-1.27 0.36,-1.81 1.28,-1.81 3.61,0 22.61,0.35 25.68,0.72 9.06,1.09 10.85,3.25 12.11,6.52 0.91,2.17 1.08,5.24 1.08,6.5 0,1.64 0.37,2.54 1.64,2.54 1.26,0 1.63,-1.08 1.81,-2 0.36,-2.17 0.72,-10.12 0.9,-11.93 0.54,-8.32 1.44,-10.5 1.44,-11.76 0,-0.9 -0.17,-1.63 -1.08,-1.63 -0.91,0 -1.99,0.54 -2.89,0.72 -1.44,0.36 -4.33,0.74 -7.78,1.08 -3.43,0.19 -39.43,0.19 -45.22,0.19 -2.54,0 -6.71,-0.19 -11.39,-0.37 -4.54,0 -9.79,-0.17 -14.67,-0.17 -2.71,0 -3.97,0.35 -3.97,1.62 0,1.27 1.08,1.63 3.07,1.63 2.53,0 5.61,0.18 7.06,0.54 5.97,1.26 7.41,4.17 7.78,10.3 0.36,5.8 0.36,10.86 0.36,38.36l0 31.83zm185.06 54.98c9.6,0 19.71,-1.62 28.76,-7.42 13.03,-8.5 17,-20.98 17,-31.47 0,-17.18 -7.76,-29.67 -29.65,-46.13l-5.08 -3.81c-15.01,-11.39 -19.17,-17.72 -19.17,-26.06 0,-10.85 8.14,-18.61 21.53,-18.61 11.76,0 17,5.42 19.71,8.85 3.8,4.72 4.71,10.32 4.71,11.94 0,2.17 0.54,3.25 1.82,3.25 1.43,0 1.98,-1.43 1.98,-5.43 0,-14.1 0.72,-19.35 0.72,-21.69 0,-1.28 -0.91,-1.82 -2.53,-2.17 -4.71,-1.28 -12.31,-3.08 -24.07,-3.08 -25.14,0 -41.79,14.29 -41.79,34.2 0,14.65 6.89,27.32 26.78,42.87l8.33 6.51c15.02,11.75 17.72,20.07 17.72,28.94 0,9.58 -7.96,20.61 -24.25,20.61 -11.21,0 -21.87,-4.89 -25.86,-18.26 -0.9,-3.08 -1.62,-6.89 -1.62,-9.24 0,-1.44 -0.18,-3.07 -1.81,-3.07 -1.46,0 -2,1.98 -2.18,4.71 -0.18,2.89 -0.9,13.75 -0.9,23.69 0,3.97 0.54,4.87 3.44,6.15 7.78,3.43 15.92,4.69 26.4,4.69zm-1125.58 413.79c0.9,0 1.43,0.36 1.8,1.26l14.44 37.26c0.94,2.18 -0.35,3.81 -1.62,4.15 -1.79,0.2 -2.52,0.54 -2.52,1.63 0,1.28 2.18,1.28 5.42,1.46 14.47,0.36 27.69,0.36 34.21,0.36 6.67,0 8.3,-0.36 8.3,-1.82 0,-1.25 -0.89,-1.43 -2.35,-1.43 -2.17,0 -4.9,-0.2 -7.58,-0.74 -3.83,-0.89 -9.06,-3.43 -15.94,-19.74 -11.58,-27.46 -40.53,-99.85 -44.86,-109.78 -1.8,-4.17 -2.87,-5.79 -4.51,-5.79 -1.79,0 -2.9,1.99 -5.06,7.24l-45.4 112.14c-3.63,9.07 -7.06,15.21 -15.38,16.29 -1.47,0.18 -3.98,0.38 -5.62,0.38 -1.43,0 -2.15,0.35 -2.15,1.43 0,1.46 1.08,1.82 3.43,1.82 9.42,0 19.35,-0.54 21.35,-0.54 5.61,0 13.39,0.54 19.18,0.54 2,0 3.06,-0.36 3.06,-1.82 0,-1.08 -0.54,-1.43 -2.72,-1.43l-2.71 0c-5.58,0 -7.21,-2.36 -7.21,-5.61 0,-2.19 0.9,-6.51 2.71,-11.06l9.75 -24.76c0.38,-1.08 0.75,-1.44 1.63,-1.44l40.36 0zm-36.74 -9.04c-0.71,0 -0.92,-0.56 -0.71,-1.29l16.61 -44.31c0.21,-0.71 0.57,-1.63 1.1,-1.63 0.57,0 0.72,0.92 0.92,1.63l16.26 44.49c0.19,0.56 0,1.11 -0.89,1.11l-33.29 0zm192.29 50.98c1.63,4.7 2.35,6.7 4.15,6.7 2.18,0 3.09,-2.17 6.51,-9.57 7.78,-16.67 31.83,-80.86 35.26,-90.08l0.38 0 37.62 90.8c2.71,6.68 3.79,8.85 5.61,8.85 2.35,0 3.25,-2.17 5.24,-8.5 8.87,-27.13 27.86,-84.65 36.18,-107.43 3.81,-10.33 5.79,-17.54 10.14,-19.18 1.97,-0.72 4.51,-0.9 6.32,-0.9 1.64,0 2.54,-0.54 2.54,-1.8 0,-1.09 -1.26,-1.44 -3.26,-1.44 -5.97,0 -13.74,0.54 -15.01,0.54 -1.63,0 -9.22,-0.54 -18.81,-0.54 -2.72,0 -4.17,0.36 -4.17,1.62 0,1.09 1.28,1.63 3.07,1.63 7.06,0 8.68,2.54 8.68,5.43 0,2.53 -0.54,6.32 -1.79,10.49 -6.33,21.17 -20.8,68.92 -24.07,81.04l-0.54 0 -37.63 -91.17c-2.35,-5.79 -3.25,-8.5 -5.25,-8.5 -1.43,0 -2.71,1.44 -4.5,6.5l-35.11 94.42 -0.54 0c-3.26,-10.11 -20.08,-64.93 -23.15,-76.86 -2.18,-8.17 -3.98,-14.29 -3.98,-16.64 0,-2 0.37,-3.26 2,-3.97 1.26,-0.74 3.07,-0.74 4.51,-0.74 1.81,0 3.26,-0.18 3.26,-1.63 0,-1.08 -1.26,-1.62 -3.8,-1.62 -10.47,0 -18.44,0.54 -20.07,0.54 -1.63,0 -11.58,-0.54 -21,-0.54 -2.53,0 -3.94,0.36 -3.94,1.62 0,1.44 1.06,1.63 2.86,1.63 1.63,0 5.25,0.36 7.24,1.63 2.54,1.82 4.53,6.15 6.69,12.85l38.36 114.85zm275.86 -41.94c0.89,0 1.43,0.36 1.8,1.26l14.47 37.26c0.91,2.18 -0.37,3.81 -1.62,4.15 -1.81,0.2 -2.54,0.54 -2.54,1.63 0,1.28 2.17,1.28 5.43,1.46 14.47,0.36 27.68,0.36 34.2,0.36 6.69,0 8.32,-0.36 8.32,-1.82 0,-1.25 -0.9,-1.43 -2.36,-1.43 -2.17,0 -4.87,-0.2 -7.6,-0.74 -3.79,-0.89 -9.04,-3.43 -15.91,-19.74 -11.57,-27.46 -40.52,-99.85 -44.86,-109.78 -1.79,-4.17 -2.9,-5.79 -4.53,-5.79 -1.81,0 -2.89,1.99 -5.06,7.24l-45.42 112.14c-3.6,9.07 -7.04,15.21 -15.36,16.29 -1.46,0.18 -3.98,0.38 -5.61,0.38 -1.44,0 -2.18,0.35 -2.18,1.43 0,1.46 1.1,1.82 3.44,1.82 9.4,0 19.36,-0.54 21.35,-0.54 5.61,0 13.37,0.54 19.17,0.54 2,0 3.09,-0.36 3.09,-1.82 0,-1.08 -0.54,-1.43 -2.71,-1.43l-2.71 0c-5.63,0 -7.25,-2.36 -7.25,-5.61 0,-2.19 0.91,-6.51 2.71,-11.06l9.78 -24.76c0.36,-1.08 0.72,-1.44 1.64,-1.44l40.33 0zm-36.74 -9.04c-0.71,0 -0.89,-0.56 -0.71,-1.29l16.64 -44.31c0.18,-0.71 0.54,-1.63 1.08,-1.63 0.54,0 0.72,0.92 0.91,1.63l16.28 44.49c0.18,0.56 0,1.11 -0.9,1.11l-33.29 0zm170.06 2.69c0,16.65 0,30.92 -0.92,38.54 -0.72,5.25 -1.63,9.22 -5.24,9.94 -1.63,0.36 -3.79,0.74 -6.51,0.74 -2.18,0 -2.91,0.51 -2.91,1.43 0,1.28 1.26,1.82 3.63,1.82 7.24,0 18.64,-0.54 22.07,-0.54 2.71,0 16.09,0.54 26.59,0.54 2.35,0 3.61,-0.54 3.61,-1.82 0,-0.92 -0.72,-1.43 -2.17,-1.43 -2.18,0 -6.15,-0.38 -8.86,-0.74 -5.43,-0.72 -6.51,-4.7 -7.06,-9.94 -0.9,-7.63 -0.9,-21.89 -0.9,-38.74l0 -2.5c0,-1.11 0.54,-1.47 1.44,-1.47l15.74 0.36c1.26,0 2.35,0.18 3.25,1.28 2.35,2.72 10.68,15.02 17.91,24.97 10.14,13.93 17.01,22.43 24.79,26.58 4.69,2.53 9.24,3.44 19.36,3.44l17.18 0c2.18,0 3.44,-0.36 3.44,-1.82 0,-0.92 -0.72,-1.43 -2.18,-1.43 -1.44,0 -3.07,-0.2 -5.07,-0.54 -2.71,-0.54 -10.11,-1.82 -20.25,-12.31 -10.68,-11.25 -23.15,-27.32 -39.25,-47.58 18.26,-14.82 23.87,-27.15 23.87,-40.51 0,-12.13 -7.24,-21.35 -12.31,-24.78 -9.76,-6.69 -21.89,-7.78 -33.29,-7.78 -5.59,0 -19.35,0.54 -25.5,0.54 -3.79,0 -15.19,-0.54 -24.79,-0.54 -2.71,0 -3.97,0.36 -3.97,1.62 0,1.26 1.08,1.63 3.08,1.63 2.53,0 5.6,0.18 7.06,0.54 5.96,1.28 7.41,4.17 7.76,10.3 0.37,5.78 0.37,10.86 0.37,38.36l0 31.82zm21.35 -72.53c0,-1.44 0.36,-2.17 1.63,-2.53 1.8,-0.54 5.06,-0.72 9.58,-0.72 10.68,0 27.67,7.41 27.67,33.11 0,14.82 -5.22,23.15 -10.67,27.13 -3.25,2.36 -5.6,3.07 -12.83,3.07 -4.53,0 -9.96,-0.57 -13.75,-1.82 -1.26,-0.53 -1.63,-1.25 -1.63,-3.25l0 -54.99zm169.5 72.53c0,16.65 0,30.92 -0.92,38.54 -0.71,5.25 -1.63,9.22 -5.25,9.94 -1.63,0.36 -3.79,0.74 -6.5,0.74 -2.18,0 -2.89,0.51 -2.89,1.43 0,1.28 1.25,1.82 3.6,1.82 3.62,0 8.33,-0.36 12.5,-0.36 4.3,-0.18 8.3,-0.18 10.3,-0.18 4.52,0 10.85,0.54 17.72,1.06 6.89,0.57 14.3,1.08 20.8,1.08 33.47,0 52.26,-12.81 60.61,-21.33 10.11,-10.29 19.7,-27.68 19.7,-50.46 0,-21.52 -8.51,-36.53 -17.54,-45.93 -19.72,-20.62 -49.93,-20.62 -72.57,-20.62 -10.83,0 -22.22,0.54 -27.83,0.54 -5.07,0 -16.46,-0.54 -26.06,-0.54 -2.7,0 -3.97,0.36 -3.97,1.62 0,1.26 1.09,1.63 3.07,1.63 2.54,0 5.61,0.18 7.06,0.54 5.99,1.28 7.42,4.17 7.78,10.3 0.37,5.78 0.37,10.86 0.37,38.36l0 31.82zm22.61 -34.74c0,-14.26 0,-30 0.17,-36.18 0,-1.98 0.54,-2.87 2.18,-3.59 1.44,-0.72 8.14,-1.26 11.75,-1.26 14.11,0 34.74,2.17 51.39,18.09 7.76,7.41 17.36,22.24 17.36,45.21 0,18.64 -3.64,35.1 -15.19,45.03 -10.85,9.42 -23.15,13.04 -41.61,13.04 -14.29,0 -21.33,-3.79 -23.7,-7.22 -1.46,-2 -1.8,-9.25 -2,-13.79 -0.18,-3.4 -0.35,-17.33 -0.35,-36.51l0 -22.81zm217.41 89.72c9.61,0 19.75,-1.63 28.78,-7.39 13.04,-8.52 17.02,-20.99 17.02,-31.49 0,-17.18 -7.78,-29.67 -29.67,-46.14l-5.07 -3.79c-15.02,-11.39 -19.17,-17.72 -19.17,-26.04 0,-10.86 8.11,-18.62 21.53,-18.62 11.74,0 16.99,5.42 19.7,8.85 3.82,4.71 4.72,10.32 4.72,11.96 0,2.17 0.54,3.25 1.82,3.25 1.43,0 1.97,-1.46 1.97,-5.43 0,-14.11 0.74,-19.35 0.74,-21.7 0,-1.26 -0.92,-1.81 -2.54,-2.17 -4.71,-1.26 -12.31,-3.08 -24.06,-3.08 -25.15,0 -41.79,14.29 -41.79,34.19 0,14.65 6.87,27.32 26.78,42.88l8.32 6.5c15.02,11.76 17.74,20.08 17.74,28.93 0,9.61 -7.98,20.64 -24.24,20.64 -11.25,0 -21.9,-4.9 -25.89,-18.28 -0.89,-3.08 -1.62,-6.86 -1.62,-9.22 0,-1.44 -0.18,-3.07 -1.81,-3.07 -1.44,0 -1.98,1.98 -2.17,4.69 -0.18,2.89 -0.91,13.74 -0.91,23.71 0,3.98 0.54,4.87 3.44,6.15 7.76,3.43 15.89,4.68 26.38,4.68zm-1058.91 -890.5c-49.35,-60.82 -88.61,-130.13 -115.26,-205.31 -25.7,-72.59 -39.68,-150.64 -39.68,-231.91 0,-191.76 77.7,-365.4 203.41,-491.11 125.68,-125.68 299.32,-203.43 491.1,-203.43 191.81,0 365.44,77.75 491.13,203.43 125.68,125.71 203.41,299.35 203.41,491.11 0,81.26 -13.98,159.32 -39.69,231.91 -26.65,75.19 -65.92,144.5 -115.25,205.31l-14.47 -11.76 -24.42 6.83 13.3 -15.87c46.93,-57.85 84.31,-123.83 109.71,-195.51 24.43,-69.02 37.75,-143.36 37.75,-220.91 0,-182.65 -74.04,-348.03 -193.74,-467.74 -119.71,-119.69 -285.06,-193.72 -467.74,-193.72 -182.65,0 -348.03,74.03 -467.72,193.72 -119.69,119.71 -193.75,285.08 -193.75,467.74 0,77.54 13.31,151.89 37.78,220.91 25.37,71.68 62.78,137.66 109.7,195.51l13.42 14.85 -23.51 -6.65 -15.49 12.61zm750.22 16.65c-1.06,2.2 -2.07,4.39 -3.14,6.56 1.07,-2.17 2.09,-4.36 3.14,-6.56zm3.11 -6.75c-0.87,1.93 -1.76,3.87 -2.68,5.79 0.92,-1.92 1.81,-3.86 2.68,-5.79zm-222.1 -36.37l-4.74 10.57 4.74 -10.57zm-72.13 79.39l33.33 6.81 52.89 -117.47 -118.29 1.26 32.07 109.4zm-20.61 -121.89l114.5 -1.22c2.13,-1.43 4.18,-2.87 6.25,-4.35l0.04 -0.01c6.35,-4.52 12.49,-9.26 18.44,-14.17l0.13 -0.13c3.93,-3.25 7.76,-6.58 11.52,-10.03l0.33 -0.28c1.78,-1.63 3.54,-3.25 5.26,-4.93l0.28 -0.28c3.63,-3.46 7.14,-6.97 10.58,-10.6l5.68 -6.08c3.26,-3.61 6.47,-7.31 9.59,-11.05 1.83,-2.24 3.67,-4.5 5.47,-6.75 1.52,-1.91 3,-3.82 4.46,-5.75 8.07,-10.75 15.3,-21.52 22.35,-32.94l3.42 -5.79c2.85,-4.96 5.6,-9.93 8.32,-15l2.97 -5.72c9.31,-18.57 17.29,-37.22 24.25,-56.82 1,-2.83 1.97,-5.67 2.94,-8.5 1.6,-4.72 3.11,-9.48 4.54,-14.25 1.01,-3.31 1.98,-6.64 2.93,-9.97 0.81,-2.74 1.56,-5.52 2.31,-8.26 1.47,-5.42 2.85,-10.89 4.18,-16.42 0.65,-2.71 1.29,-5.46 1.9,-8.18 1.26,-5.63 2.47,-11.28 3.6,-16.96l1.58 -8.26c1.07,-5.75 2.04,-11.56 3,-17.39l1.29 -8.43c0.85,-5.83 1.67,-11.72 2.37,-17.67 0.64,-5.24 1.26,-10.48 1.79,-15.75 1.1,-10.44 1.97,-21.03 2.67,-31.65 1.3,-19.31 1.78,-38.61 1.9,-57.93 -0.06,-22.07 -0.75,-43.74 -2.02,-65.76 -0.58,-9.35 -1.29,-18.72 -2.09,-28.1 -1.41,-16.1 -3.2,-32.14 -5.24,-48.17 -1.18,-9.29 -2.5,-18.59 -3.93,-27.85 -6.12,-39.36 -13.85,-78.25 -23.58,-116.87 -12.33,-49.21 -27.43,-97.03 -44.76,-142.11 -3.44,-8.9 -6.93,-17.71 -10.53,-26.39 47.43,142.35 62.65,296.63 43.29,440.21 -24.39,180.6 -103.44,344.39 -242,446.57zm121.36 9.09l-53.63 119.14 30.21 -3.82 210.64 -32.24c70.78,-146.86 112.43,-366.83 73.93,-597.83 -27.11,-162.64 -93.99,-330.71 -218.39,-482.52 11.31,20.76 21.78,41.79 31.54,63.33 3.51,7.75 6.97,15.63 10.35,23.58 10.3,24.32 19.68,48.82 28.36,73.79 3.01,8.68 5.96,17.46 8.79,26.31 13.06,41.17 24.18,82.36 33.21,124.61 1.64,7.76 3.25,15.54 4.75,23.36 3.02,14 5.39,28.96 7.63,43.15 2.68,16.76 4.98,33.58 6.93,50.4 1.03,8.79 1.89,17.57 2.75,26.37 1.3,13.82 2.33,27.64 3.12,41.4 2.06,36.28 2.13,72.31 0.35,108.59 -0.8,15.47 -2.02,30.76 -3.64,45.87l-0.53 4.93c-7.06,62.1 -21.08,120.78 -43.28,173.2l-0.1 0.22c-3.19,7.54 -6.56,14.93 -10.07,22.21l-0.33 0.69c-2.33,4.78 -4.78,9.53 -7.26,14.21 -2.61,4.83 -5.29,9.57 -8,14.35 -1.31,2.22 -2.63,4.44 -3.96,6.62 -2.92,4.74 -5.87,9.38 -8.96,14.02 -1.33,2.03 -2.71,4.03 -4.1,6.03 -4.6,6.51 -9.25,12.75 -14.14,19.04 -2.08,2.61 -4.18,5.18 -6.31,7.74l-5.24 6.09 -3.74 4.21c-2.33,2.53 -4.69,5.04 -7.08,7.56l-2.89 2.97 -3.59 3.58 -2.88 2.8c-2.59,2.46 -5.19,4.89 -7.83,7.31l-2.49 2.18 -5.01 4.36 -2.29 1.96c-3.47,2.85 -6.93,5.67 -10.5,8.4 -2.1,1.63 -4.24,3.22 -6.41,4.81 -3.25,2.39 -6.58,4.69 -9.93,7.01zm-579.58 34.5c4.21,-1 8.92,-1.58 14.32,-1.58 23.36,0 34.06,10.7 44.74,21.36 5.82,5.83 11.65,11.67 21.32,11.67 9.68,0 15.52,-5.85 21.35,-11.68 10.68,-10.68 21.36,-21.35 44.7,-21.35 23.36,0 34.03,10.7 44.74,21.36 5.82,5.83 11.64,11.67 21.32,11.67 8.47,0 14.3,-5.64 20.22,-11.36 9.18,-8.88 18.5,-17.91 34.75,-20.76l4.3 -0.59c2.15,-0.19 4.39,-0.32 6.76,-0.32 23.26,0 34.02,10.71 44.7,21.43 5.8,5.79 11.59,11.59 21.33,11.59 9.74,0 15.54,-5.8 21.33,-11.59 10.69,-10.72 21.42,-21.43 44.71,-21.43 16.98,0 27.25,5.67 35.72,12.87l15.09 51.41c-13.39,-3.5 -21.43,-11.52 -29.44,-19.54l0.03 -0.04c-5.82,-5.79 -11.65,-11.63 -21.39,-11.63 -9.75,0 -15.54,5.8 -21.32,11.61 -10.71,10.69 -21.43,21.43 -44.72,21.43 -23.29,0 -34,-10.7 -44.69,-21.43 -5.79,-5.81 -11.6,-11.61 -21.33,-11.61 -10.19,0 -16.57,6.18 -22.83,12.24 -10.83,10.48 -21.47,20.8 -43.21,20.8 -23.36,0 -34.03,-10.69 -44.72,-21.37 -5.83,-5.82 -11.67,-11.67 -21.33,-11.67 -9.64,0 -15.49,5.83 -21.32,11.67 -10.68,10.68 -21.35,21.37 -44.72,21.37 -23.36,0 -34.03,-10.69 -44.71,-21.37 -1.9,-1.9 -3.8,-3.8 -5.85,-5.5 -10.35,-12.19 -20.31,-24.74 -29.82,-37.65zm791.39 23.63c1.25,-1.15 2.48,-2.35 3.72,-3.54 9.18,-8.88 18.52,-17.91 34.75,-20.76l4.32 -0.59c2.14,-0.19 4.39,-0.32 6.76,-0.32 23.28,0 34,10.71 44.69,21.43 5.81,5.79 11.58,11.59 21.33,11.59 9.74,0 15.53,-5.8 21.32,-11.59 10.71,-10.72 21.43,-21.43 44.72,-21.43 23.31,0 33.99,10.7 44.65,21.36l0.08 0c5.81,5.83 11.65,11.67 21.31,11.67 9.69,0 15.53,-5.85 21.36,-11.68 10.68,-10.68 21.36,-21.35 44.68,-21.35 5.09,0 9.61,0.5 13.64,1.43 -10.47,14.21 -21.49,28.01 -32.99,41.36 -0.67,0.64 -1.3,1.29 -1.96,1.94 -10.67,10.68 -21.36,21.37 -44.74,21.37 -23.33,0 -34.02,-10.69 -44.69,-21.37l0.04 -0.04c-5.83,-5.79 -11.67,-11.63 -21.39,-11.63 -9.74,0 -15.54,5.8 -21.33,11.61 -10.7,10.69 -21.41,21.43 -44.71,21.43 -23.28,0 -34,-10.7 -44.71,-21.43 -5.79,-5.81 -11.6,-11.61 -21.32,-11.61 -10.21,0 -16.58,6.18 -22.85,12.24 -10.83,10.48 -21.47,20.8 -43.21,20.8l-0.93 -0.01c6.06,-13.11 11.89,-26.76 17.43,-40.89zm-112.35 105.11c-9.65,0 -15.51,5.83 -21.32,11.67 -10.68,10.67 -21.36,21.36 -44.74,21.36 -23.33,0 -34.03,-10.68 -44.69,-21.35l0.04 -0.04c-5.83,-5.82 -11.67,-11.64 -21.39,-11.64 -9.72,0 -15.54,5.79 -21.32,11.6 -10.72,10.71 -21.43,21.43 -44.74,21.43 -23.28,0 -33.97,-10.72 -44.7,-21.43 -5.82,-5.78 -11.59,-11.6 -21.35,-11.6 -10.17,0 -16.54,6.17 -22.82,12.22 -10.83,10.5 -21.46,20.8 -43.21,20.8 -23.35,0 -34.04,-10.68 -44.72,-21.36 -5.83,-5.83 -11.65,-11.67 -21.32,-11.67 -9.65,0 -15.5,5.83 -21.33,11.67 -10.67,10.67 -21.35,21.36 -44.72,21.36 -23.35,0 -34.03,-10.68 -44.69,-21.35 -5.68,-5.68 -11.37,-11.37 -20.61,-11.68l-1.26 0c-7.26,0.17 -12.59,3.49 -17.35,7.61 -8.75,-6.82 -17.36,-13.85 -25.78,-21.1 10.39,-9.97 21.65,-19.52 43.37,-19.57l0.92 0c20.15,0.06 30.4,7.65 44.08,21.33 5.82,5.86 11.65,11.68 21.32,11.68 9.7,0 15.53,-5.85 21.36,-11.68 10.67,-10.65 21.35,-21.33 44.69,-21.33 23.35,0 34.02,10.68 44.7,21.33 5.83,5.86 11.68,11.68 21.35,11.68 8.47,0 14.31,-5.64 20.22,-11.36 9.18,-8.89 18.52,-17.92 34.75,-20.75l4.33 -0.59c2.12,-0.22 4.37,-0.32 6.72,-0.32 23.31,0 34,10.72 44.72,21.41 5.81,5.8 11.6,11.61 21.32,11.61 9.74,0 15.54,-5.81 21.33,-11.61 10.72,-10.68 21.41,-21.41 44.72,-21.41 23.29,0 33.98,10.68 44.67,21.33l0.07 0c5.8,5.86 11.65,11.68 21.3,11.68 9.7,0 15.52,-5.85 21.35,-11.68 10.67,-10.65 21.36,-21.33 44.71,-21.33 20.68,0 30.85,7.53 44.71,21.41 5.79,5.8 11.6,11.61 21.32,11.61 9.75,0 15.56,-5.81 21.35,-11.61 10.68,-10.68 21.4,-21.41 44.71,-21.41 23.36,0 34.03,10.68 44.72,21.33 5.83,5.86 11.67,11.68 21.32,11.68 9.67,0 15.52,-5.85 21.35,-11.68 10.68,-10.65 21.35,-21.33 44.68,-21.33 23.39,0 34.06,10.68 44.74,21.33 3.35,3.36 6.72,6.75 10.82,9 -8.9,7.26 -17.96,14.32 -27.21,21.15 -2.41,-2.18 -4.71,-4.47 -7,-6.76 -5.83,-5.83 -11.65,-11.67 -21.35,-11.67 -9.64,0 -15.47,5.83 -21.29,11.67 -10.68,10.67 -21.37,21.36 -44.74,21.36 -23.35,0 -34.01,-10.68 -44.69,-21.35 -5.83,-5.85 -11.67,-11.68 -21.35,-11.68 -9.75,0 -15.54,5.79 -21.35,11.6 -10.68,10.71 -21.4,21.43 -44.71,21.43 -23.28,0 -34,-10.72 -44.68,-21.43 -5.82,-5.78 -11.6,-11.6 -21.35,-11.6zm-59.85 97.25c-9.64,0 -15.47,5.85 -21.32,11.65 -10.68,10.69 -21.35,21.37 -44.72,21.37 -23.35,0 -34.03,-10.68 -44.71,-21.35l0.04 -0.04c-5.83,-5.8 -11.65,-11.64 -21.39,-11.64 -9.72,0 -15.53,5.8 -21.32,11.61 -10.71,10.69 -21.43,21.42 -44.72,21.42 -23.26,0 -33.99,-10.72 -44.69,-21.42 -5.8,-5.81 -11.6,-11.61 -21.36,-11.61 -10.15,0 -16.53,6.17 -22.81,12.24 -1.64,1.58 -3.26,3.17 -4.97,4.75 -11.98,-4.26 -23.85,-8.83 -35.54,-13.74 8.21,-5.15 10.01,-7.37 17.53,-14.64 9.18,-8.89 18.51,-17.93 34.75,-20.76l4.32 -0.58c2.13,-0.21 4.39,-0.33 6.72,-0.33 23.3,0 34.04,10.72 44.74,21.43 5.8,5.79 11.59,11.59 21.32,11.59 9.74,0 15.53,-5.8 21.32,-11.59 10.72,-10.71 21.43,-21.43 44.72,-21.43 23.3,0 33.98,10.7 44.67,21.36l0.07 0c5.82,5.83 11.68,11.67 21.32,11.67 9.68,0 15.51,-5.85 21.35,-11.68 10.69,-10.67 21.33,-21.35 44.69,-21.35 20.68,0 30.86,7.56 44.74,21.43 5.78,5.79 11.6,11.59 21.32,11.59 9.72,0 15.53,-5.8 21.32,-11.59 10.68,-10.71 21.43,-21.43 44.71,-21.43 23.36,0 34.07,10.7 44.74,21.36 16.36,15 11.7,10.32 20.59,19.21 -11.39,4.53 -22.83,8.76 -34.52,12.69l0 0.38c-3.36,-2.8 -6.39,-5.83 -9.44,-8.89 -5.83,-5.83 -11.68,-11.68 -21.36,-11.68 -9.72,0 -15.54,5.8 -21.32,11.61 -10.71,10.69 -21.42,21.42 -44.71,21.42 -23.3,0 -34.01,-10.72 -44.71,-21.42 -5.8,-5.81 -11.61,-11.61 -21.35,-11.61z"/>
  </g>
 </g>
</svg>
