<?xml version="1.0" encoding="UTF-8"?>
<!DOCTYPE svg PUBLIC "-//W3C//DTD SVG 1.1//EN" "http://www.w3.org/Graphics/SVG/1.1/DTD/svg11.dtd">
<!-- Creator: CorelDRAW 2020 (64-Bit) -->
<svg xmlns="http://www.w3.org/2000/svg" xml:space="preserve" width="2.1in" height="2.583in" version="1.1" style="shape-rendering:geometricPrecision; text-rendering:geometricPrecision; image-rendering:optimizeQuality; fill-rule:evenodd; clip-rule:evenodd"
viewBox="0 0 2100 2583"
 xmlns:xlink="http://www.w3.org/1999/xlink"
 xmlns:xodm="http://www.corel.com/coreldraw/odm/2003">
 <defs>
  <style type="text/css">
   <![CDATA[
    .fil0 {fill:#FEFEFE;fill-rule:nonzero}
   ]]>
  </style>
 </defs>
 <g id="Layer_x0020_1">
  <metadata id="CorelCorpID_0Corel-Layer"/>
  <polygon class="fil0" points="747,2044.94 579.12,1824.58 579.12,2044.94 503.86,2044.94 503.86,1698.32 574.18,1698.32 736.59,1911.72 736.59,1698.32 811.87,1698.32 811.87,2044.94 "/>
  <path class="fil0" d="M1113.94 1939.46c0,-23.25 -17.3,-37.64 -56.43,-37.64l-88.18 0 0 76.26 90.64 0c33.68,0 53.97,-11.86 53.97,-37.63l0 -1zm-19.32 -138.65c0,-22.78 -17.83,-35.65 -50.01,-35.65l-75.28 0 0 73.28 70.35 0c33.65,0 54.94,-10.85 54.94,-36.61l0 -1.02zm-34.65 244.14l-164.9 0 0 -346.65 160.96 0c70.8,0 114.35,35.17 114.35,89.64l0 1c0,39.11 -20.8,60.9 -45.56,74.79 40.14,15.32 64.87,38.61 64.87,85.15l0 0.97c0,63.39 -51.5,95.1 -129.73,95.1z"/>
  <path class="fil0" d="M1405.6 1787.46l-46.07 112.42 92.15 0 -46.08 -112.42zm105 257.47l-31.68 -77.74 -146.61 0 -31.71 77.74 -77.74 0 148.57 -349.07 70.32 0 148.57 349.07 -79.72 0z"/>
  <polygon class="fil0" points="1914.66,2044.94 1914.66,1818.63 1817.13,1966.68 1815.12,1966.68 1718.55,1820.15 1718.55,2044.94 1643.8,2044.94 1643.8,1698.32 1725.99,1698.32 1817.13,1844.87 1908.24,1698.32 1990.42,1698.32 1990.42,2044.94 "/>
  <path class="fil0" d="M760.81 2102.19l12.74 0 -4.67 -10.46c-0.28,-0.63 -0.56,-1.4 -0.86,-2.22 -0.28,-0.91 -0.59,-1.86 -0.87,-2.91 -0.25,1 -0.53,1.9 -0.79,2.8 -0.28,0.83 -0.57,1.65 -0.86,2.33l-4.68 10.46zm20.51 17.92l-5.15 -11.74 -18.08 0 -5.29 11.74 -7.81 0 22.11 -47.44 22.06 47.44 -7.83 0z"/>
  <polygon class="fil0" points="793.44,2120.1 793.44,2074.5 800.89,2074.5 800.89,2113.46 817.43,2113.46 817.43,2120.1 "/>
  <path class="fil0" d="M849.96 2113.89l2.56 0c2.6,0 4.57,-0.1 5.83,-0.29 1.29,-0.21 2.32,-0.57 3.06,-1.13 0.89,-0.58 1.63,-1.37 2.14,-2.4 0.49,-1.06 0.72,-2.15 0.72,-3.36 0,-1.46 -0.31,-2.74 -0.91,-3.79 -0.58,-1.11 -1.48,-1.96 -2.58,-2.56 -0.72,-0.32 -1.48,-0.61 -2.43,-0.76 -0.89,-0.18 -2.1,-0.26 -3.58,-0.26l-2.25 0 -2.56 0 0 14.56zm0 -20.14l2.83 0c3.56,0 6.04,-0.52 7.5,-1.46 1.44,-0.96 2.21,-2.58 2.21,-4.89 0,-2.5 -0.7,-4.22 -2.04,-5.22 -1.35,-1 -3.89,-1.54 -7.67,-1.54l-2.83 0 0 13.11zm-7.25 26.36l0 -45.65 11.5 0c3.29,0 5.69,0.18 7.26,0.56 1.58,0.35 2.9,0.96 4,1.76 1.41,1.01 2.5,2.37 3.29,4.08 0.79,1.65 1.17,3.53 1.17,5.57 0,2.41 -0.56,4.44 -1.69,6.07 -1.1,1.67 -2.72,2.78 -4.88,3.38 2.67,0.46 4.74,1.62 6.26,3.68 1.56,2.02 2.32,4.53 2.32,7.61 0,1.8 -0.36,3.54 -0.97,5.26 -0.65,1.64 -1.6,3.07 -2.78,4.19 -1.24,1.28 -2.76,2.18 -4.63,2.68 -1.83,0.54 -4.94,0.8 -9.28,0.8l-11.58 0z"/>
  <path class="fil0" d="M918.52 2097.41c0,-2.32 -0.42,-4.54 -1.28,-6.58 -0.82,-2.1 -2.04,-3.96 -3.63,-5.56 -1.51,-1.58 -3.28,-2.83 -5.32,-3.71 -2.04,-0.82 -4.19,-1.28 -6.4,-1.28 -2.24,0 -4.39,0.46 -6.42,1.28 -2.01,0.83 -3.8,2.13 -5.39,3.71 -1.61,1.58 -2.78,3.42 -3.65,5.52 -0.83,2.08 -1.22,4.3 -1.22,6.62 0,2.26 0.39,4.47 1.22,6.54 0.87,2.01 2.04,3.87 3.65,5.5 1.59,1.63 3.35,2.86 5.39,3.72 1.99,0.81 4.14,1.26 6.42,1.26 2.21,0 4.32,-0.46 6.32,-1.26 2.02,-0.86 3.82,-2.09 5.4,-3.72 1.59,-1.63 2.81,-3.49 3.63,-5.54 0.86,-2.07 1.28,-4.28 1.28,-6.5zm7.75 0c0,3.25 -0.63,6.26 -1.83,9.18 -1.21,2.92 -3.02,5.47 -5.32,7.71 -2.35,2.29 -4.97,3.97 -7.96,5.22 -2.94,1.2 -6.06,1.79 -9.26,1.79 -3.28,0 -6.42,-0.59 -9.4,-1.79 -2.97,-1.25 -5.63,-2.97 -7.88,-5.22 -2.35,-2.24 -4.11,-4.79 -5.32,-7.67 -1.22,-2.87 -1.8,-5.96 -1.8,-9.22 0,-3.29 0.58,-6.37 1.8,-9.29 1.21,-2.85 2.97,-5.44 5.32,-7.69 2.28,-2.28 4.94,-4 7.92,-5.24 2.94,-1.17 6.04,-1.71 9.36,-1.71 3.28,0 6.4,0.54 9.33,1.71 2.94,1.24 5.56,2.96 7.89,5.24 2.31,2.29 4.11,4.86 5.32,7.78 1.2,2.92 1.83,5.96 1.83,9.21z"/>
  <path class="fil0" d="M943.26 2102.19l12.71 0 -4.69 -10.46c-0.24,-0.63 -0.5,-1.4 -0.83,-2.22 -0.26,-0.91 -0.58,-1.86 -0.85,-2.91 -0.26,1 -0.53,1.9 -0.81,2.8 -0.28,0.83 -0.56,1.65 -0.87,2.33l-4.65 10.46zm20.5 17.92l-5.19 -11.74 -18.07 0 -5.25 11.74 -7.82 0 22.1 -47.44 22.04 47.44 -7.81 0z"/>
  <polygon class="fil0" points="987.13,2080.78 987.13,2120.11 979.72,2120.11 979.72,2080.78 967.6,2080.78 967.6,2074.46 999.18,2074.46 999.18,2080.78 "/>
  <polygon class="fil0" points="1004.99,2074.48 1012.39,2074.48 1012.39,2120.1 1004.99,2120.1 "/>
  <path class="fil0" d="M1023.06 2120.1l0 -47.42 28.96 27.9c0.81,0.75 1.6,1.59 2.42,2.53 0.8,0.86 1.67,1.89 2.53,3l0 -31.61 6.87 0 0 47.36 -29.58 -28.4c-0.75,-0.72 -1.56,-1.52 -2.28,-2.41 -0.74,-0.85 -1.46,-1.75 -2.11,-2.67l0 31.71 -6.8 0z"/>
  <path class="fil0" d="M1099.56 2096.73l18.08 0 0 1.31c0.07,1.47 0.11,2.46 0.11,3.01 0,6.42 -1.83,11.35 -5.5,14.96 -3.69,3.53 -8.89,5.32 -15.54,5.32 -3.75,0 -7.09,-0.58 -10.02,-1.68 -2.91,-1.1 -5.47,-2.75 -7.68,-4.96 -2.18,-2.21 -3.85,-4.81 -4.97,-7.78 -1.14,-2.96 -1.74,-6.15 -1.74,-9.5 0,-3.43 0.59,-6.68 1.78,-9.57 1.17,-2.91 2.89,-5.47 5.21,-7.68 2.24,-2.18 4.83,-3.86 7.81,-4.97 3.01,-1.14 6.18,-1.72 9.62,-1.72 3.57,0 6.81,0.64 9.64,1.97 2.83,1.32 5.36,3.28 7.59,6l-5.43 4.08c-1.56,-1.8 -3.28,-3.11 -5.21,-3.97 -1.94,-0.9 -4.08,-1.35 -6.51,-1.35 -4.93,0 -8.94,1.58 -12.09,4.76 -3.1,3.18 -4.67,7.31 -4.67,12.37 0,5.11 1.57,9.29 4.67,12.5 3.15,3.22 7.19,4.85 12.16,4.85 4.25,0 7.61,-1 10.03,-2.97 2.42,-1.97 3.64,-4.67 3.64,-8.1l0 -0.61 -10.97 0 0 -6.28z"/>
  <path class="fil0" d="M1154.43 2102.19l12.72 0 -4.71 -10.46c-0.24,-0.63 -0.51,-1.4 -0.83,-2.22 -0.26,-0.91 -0.58,-1.86 -0.85,-2.91 -0.26,1 -0.53,1.9 -0.8,2.8 -0.28,0.83 -0.56,1.65 -0.86,2.33l-4.67 10.46zm20.48 17.92l-5.17 -11.74 -18.06 0 -5.29 11.74 -7.81 0 22.1 -47.44 22.04 47.44 -7.82 0z"/>
  <path class="fil0" d="M1184.43 2110.97l5.9 -2.72c0.56,1.97 1.61,3.56 3.08,4.65 1.53,1.07 3.43,1.58 5.75,1.58 2.21,0 3.96,-0.61 5.24,-1.82 1.32,-1.21 1.94,-2.87 1.94,-4.94 0,-2.68 -2.22,-5.06 -6.67,-7.15 -0.59,-0.32 -1.07,-0.53 -1.43,-0.67 -5,-2.5 -8.35,-4.71 -10.06,-6.69 -1.65,-1.96 -2.47,-4.41 -2.47,-7.28 0,-3.69 1.24,-6.69 3.75,-9 2.54,-2.33 5.85,-3.46 9.96,-3.46 3.35,0 6.14,0.64 8.43,1.91 2.25,1.33 3.85,3.18 4.71,5.63l-5.8 2.99c-0.91,-1.44 -1.91,-2.53 -3.02,-3.14 -1.07,-0.71 -2.31,-1 -3.72,-1 -2,0 -3.61,0.49 -4.78,1.54 -1.18,1.04 -1.78,2.42 -1.78,4.19 0,2.72 2.61,5.28 7.76,7.64 0.36,0.17 0.68,0.33 0.93,0.46 4.5,2.06 7.6,4.1 9.25,6.06 1.7,1.99 2.53,4.47 2.53,7.46 0,4.3 -1.35,7.72 -4.06,10.28 -2.72,2.57 -6.4,3.83 -11.04,3.83 -3.87,0 -7.04,-0.92 -9.54,-2.68 -2.48,-1.79 -4.11,-4.33 -4.87,-7.67z"/>
  <path class="fil0" d="M1219.44 2110.97l5.92 -2.72c0.56,1.97 1.6,3.56 3.07,4.65 1.53,1.07 3.43,1.58 5.74,1.58 2.22,0 3.98,-0.61 5.25,-1.82 1.33,-1.21 1.99,-2.87 1.99,-4.94 0,-2.68 -2.26,-5.06 -6.71,-7.15 -0.58,-0.32 -1.07,-0.53 -1.42,-0.67 -5.01,-2.5 -8.36,-4.71 -10.07,-6.69 -1.67,-1.96 -2.47,-4.41 -2.47,-7.28 0,-3.69 1.25,-6.69 3.75,-9 2.54,-2.33 5.85,-3.46 9.96,-3.46 3.35,0 6.15,0.64 8.43,1.91 2.25,1.33 3.85,3.18 4.71,5.63l-5.81 2.99c-0.9,-1.44 -1.9,-2.53 -3.01,-3.14 -1.07,-0.71 -2.31,-1 -3.72,-1 -2,0 -3.61,0.49 -4.78,1.54 -1.18,1.04 -1.76,2.42 -1.76,4.19 0,2.72 2.59,5.28 7.75,7.64 0.37,0.17 0.68,0.33 0.93,0.46 4.5,2.06 7.6,4.1 9.26,6.06 1.68,1.99 2.52,4.47 2.52,7.46 0,4.3 -1.35,7.72 -4.06,10.28 -2.71,2.57 -6.4,3.83 -11.04,3.83 -3.87,0 -7.04,-0.92 -9.53,-2.68 -2.5,-1.79 -4.12,-4.33 -4.89,-7.67z"/>
  <path class="fil0" d="M1296.13 2097.41c0,-2.32 -0.4,-4.54 -1.28,-6.58 -0.83,-2.1 -2.04,-3.96 -3.64,-5.56 -1.52,-1.58 -3.28,-2.83 -5.32,-3.71 -2,-0.82 -4.18,-1.28 -6.39,-1.28 -2.25,0 -4.39,0.46 -6.44,1.28 -2,0.83 -3.78,2.13 -5.39,3.71 -1.6,1.58 -2.76,3.42 -3.6,5.52 -0.86,2.08 -1.22,4.3 -1.22,6.62 0,2.26 0.36,4.47 1.22,6.54 0.83,2.01 2,3.87 3.6,5.5 1.61,1.63 3.39,2.86 5.39,3.72 2.01,0.81 4.15,1.26 6.44,1.26 2.21,0 4.32,-0.46 6.32,-1.26 2,-0.86 3.83,-2.09 5.39,-3.72 1.59,-1.63 2.8,-3.49 3.64,-5.54 0.87,-2.07 1.28,-4.28 1.28,-6.5zm7.74 0c0,3.25 -0.62,6.26 -1.83,9.18 -1.2,2.92 -3.02,5.47 -5.32,7.71 -2.35,2.29 -4.99,3.97 -7.94,5.22 -2.94,1.2 -6.06,1.79 -9.26,1.79 -3.29,0 -6.44,-0.59 -9.42,-1.79 -2.96,-1.25 -5.64,-2.97 -7.86,-5.22 -2.35,-2.24 -4.13,-4.79 -5.33,-7.67 -1.21,-2.87 -1.79,-5.96 -1.79,-9.22 0,-3.29 0.58,-6.37 1.79,-9.29 1.21,-2.85 2.99,-5.44 5.33,-7.69 2.31,-2.28 4.94,-4 7.9,-5.24 2.93,-1.17 6.06,-1.71 9.38,-1.71 3.28,0 6.39,0.54 9.33,1.71 2.93,1.24 5.56,2.96 7.88,5.24 2.3,2.29 4.12,4.86 5.32,7.78 1.21,2.92 1.83,5.96 1.83,9.21z"/>
  <path class="fil0" d="M1348.96 2085.59c-2.11,-1.82 -4.32,-3.17 -6.64,-4.03 -2.33,-0.92 -4.79,-1.35 -7.36,-1.35 -5,0 -9.06,1.6 -12.15,4.76 -3.15,3.21 -4.71,7.38 -4.71,12.47 0,4.89 1.53,9 4.56,12.15 3.04,3.22 6.91,4.85 11.52,4.85 2.69,0 5.29,-0.53 7.71,-1.47 2.46,-0.93 4.8,-2.37 7.06,-4.3l0 8.35c-2.04,1.46 -4.18,2.48 -6.53,3.21 -2.36,0.71 -4.9,1.08 -7.65,1.08 -3.48,0 -6.69,-0.56 -9.68,-1.72 -2.92,-1.15 -5.57,-2.83 -7.79,-5.04 -2.22,-2.19 -3.92,-4.75 -5.13,-7.72 -1.21,-2.97 -1.79,-6.11 -1.79,-9.42 0,-3.38 0.58,-6.52 1.79,-9.47 1.21,-2.96 2.94,-5.52 5.18,-7.72 2.26,-2.25 4.89,-3.96 7.81,-5.09 2.94,-1.15 6.1,-1.74 9.48,-1.74 2.7,0 5.25,0.37 7.67,1.21 2.41,0.76 4.8,1.93 7.08,3.5l-0.42 7.5z"/>
  <polygon class="fil0" points="1358.29,2074.48 1365.72,2074.48 1365.72,2120.1 1358.29,2120.1 "/>
  <path class="fil0" d="M1385.97 2102.19l12.72 0 -4.65 -10.46c-0.29,-0.63 -0.57,-1.4 -0.87,-2.22 -0.29,-0.91 -0.59,-1.86 -0.87,-2.91 -0.24,1 -0.52,1.9 -0.79,2.8 -0.28,0.83 -0.54,1.65 -0.86,2.33l-4.67 10.46zm20.5 17.92l-5.15 -11.74 -18.08 0 -5.28 11.74 -7.82 0 22.08 -47.44 22.07 47.44 -7.82 0z"/>
  <polygon class="fil0" points="1429.85,2080.78 1429.85,2120.11 1422.42,2120.11 1422.42,2080.78 1410.31,2080.78 1410.31,2074.46 1441.91,2074.46 1441.91,2080.78 "/>
  <polygon class="fil0" points="1447.71,2074.48 1455.14,2074.48 1455.14,2120.1 1447.71,2120.1 "/>
  <path class="fil0" d="M1504.8 2097.41c0,-2.32 -0.42,-4.54 -1.25,-6.58 -0.86,-2.1 -2.07,-3.96 -3.63,-5.56 -1.56,-1.58 -3.32,-2.83 -5.35,-3.71 -2.02,-0.82 -4.15,-1.28 -6.41,-1.28 -2.25,0 -4.39,0.46 -6.43,1.28 -2,0.83 -3.79,2.13 -5.39,3.71 -1.58,1.58 -2.78,3.42 -3.59,5.52 -0.86,2.08 -1.24,4.3 -1.24,6.62 0,2.26 0.37,4.47 1.24,6.54 0.82,2.01 2.01,3.87 3.59,5.5 1.6,1.63 3.39,2.86 5.39,3.72 2.04,0.81 4.14,1.26 6.43,1.26 2.21,0 4.32,-0.46 6.32,-1.26 2,-0.86 3.83,-2.09 5.43,-3.72 1.56,-1.63 2.76,-3.49 3.63,-5.54 0.83,-2.07 1.25,-4.28 1.25,-6.5zm7.74 0c0,3.25 -0.61,6.26 -1.82,9.18 -1.21,2.92 -3.03,5.47 -5.33,7.71 -2.35,2.29 -4.97,3.97 -7.92,5.22 -2.97,1.2 -6.04,1.79 -9.29,1.79 -3.28,0 -6.43,-0.59 -9.4,-1.79 -2.97,-1.25 -5.63,-2.97 -7.87,-5.22 -2.35,-2.24 -4.11,-4.79 -5.33,-7.67 -1.17,-2.87 -1.79,-5.96 -1.79,-9.22 0,-3.29 0.63,-6.37 1.79,-9.29 1.22,-2.85 2.99,-5.44 5.33,-7.69 2.32,-2.28 4.94,-4 7.9,-5.24 2.94,-1.17 6.06,-1.71 9.37,-1.71 3.28,0 6.41,0.54 9.35,1.71 2.93,1.24 5.54,2.96 7.86,5.24 2.31,2.29 4.13,4.86 5.33,7.78 1.21,2.92 1.82,5.96 1.82,9.21z"/>
  <path class="fil0" d="M1521.03 2120.1l0 -47.42 28.96 27.9c0.82,0.75 1.61,1.59 2.42,2.53 0.82,0.86 1.68,1.89 2.57,3l0 -31.61 6.85 0 0 47.36 -29.56 -28.4c-0.79,-0.72 -1.56,-1.52 -2.32,-2.41 -0.72,-0.85 -1.4,-1.75 -2.07,-2.67l0 31.71 -6.85 0z"/>
  <path class="fil0" d="M1630.59 2097.41c0,-2.32 -0.43,-4.54 -1.26,-6.58 -0.85,-2.1 -2.06,-3.96 -3.65,-5.56 -1.51,-1.58 -3.29,-2.83 -5.32,-3.71 -2,-0.82 -4.19,-1.28 -6.39,-1.28 -2.25,0 -4.39,0.46 -6.44,1.28 -1.98,0.83 -3.8,2.13 -5.39,3.71 -1.57,1.58 -2.76,3.42 -3.6,5.52 -0.85,2.08 -1.24,4.3 -1.24,6.62 0,2.26 0.39,4.47 1.24,6.54 0.83,2.01 2.03,3.87 3.6,5.5 1.58,1.63 3.4,2.86 5.39,3.72 2.06,0.81 4.17,1.26 6.44,1.26 2.2,0 4.32,-0.46 6.32,-1.26 2.01,-0.86 3.85,-2.09 5.39,-3.72 1.6,-1.63 2.81,-3.49 3.65,-5.54 0.83,-2.07 1.26,-4.28 1.26,-6.5zm7.74 0c0,3.25 -0.63,6.26 -1.83,9.18 -1.2,2.92 -3.01,5.47 -5.32,7.71 -2.35,2.29 -4.98,3.97 -7.92,5.22 -2.97,1.2 -6.06,1.79 -9.29,1.79 -3.3,0 -6.44,-0.59 -9.41,-1.79 -2.96,-1.25 -5.61,-2.97 -7.86,-5.22 -2.36,-2.24 -4.11,-4.79 -5.33,-7.67 -1.18,-2.87 -1.8,-5.96 -1.8,-9.22 0,-3.29 0.62,-6.37 1.8,-9.29 1.22,-2.85 2.97,-5.44 5.33,-7.69 2.3,-2.28 4.94,-4 7.9,-5.24 2.93,-1.17 6.04,-1.71 9.37,-1.71 3.28,0 6.39,0.54 9.33,1.71 2.93,1.24 5.56,2.96 7.87,5.24 2.31,2.29 4.11,4.86 5.32,7.78 1.21,2.92 1.83,5.96 1.83,9.21z"/>
  <polygon class="fil0" points="1646.81,2120.1 1646.81,2074.5 1672.27,2074.5 1672.27,2080.78 1654.24,2080.78 1654.24,2092.14 1672.27,2092.14 1672.27,2098.65 1654.24,2098.65 1654.24,2120.1 "/>
  <path class="fil0" d="M1736.76 2097.57c-0.07,-0.33 -0.21,-1.32 -0.42,-2.94 -0.17,-1.32 -0.3,-2.43 -0.41,-3.29 -0.2,1.04 -0.47,2.09 -0.8,3.11 -0.35,1.06 -0.78,2.13 -1.26,3.18l-11.97 24.3 -11.93 -24.82c-0.5,-0.98 -0.93,-1.98 -1.28,-2.94 -0.38,-0.96 -0.71,-1.89 -0.97,-2.83 -0.02,0.96 -0.09,1.97 -0.24,3.03 -0.13,1.06 -0.31,2.12 -0.59,3.26l-4.9 22.47 -6.85 0 10.79 -47.56 13.47 28.79c0.21,0.46 0.52,1.24 0.93,2.29 0.46,1.06 0.97,2.33 1.56,3.93 0.44,-1.33 1.14,-2.97 2.04,-4.98 0.28,-0.54 0.46,-0.96 0.58,-1.28l13.14 -28.75 11.03 47.56 -6.88 0 -5.06 -22.53z"/>
  <path class="fil0" d="M1764.23 2102.19l12.72 0 -4.65 -10.46c-0.29,-0.63 -0.56,-1.4 -0.87,-2.22 -0.28,-0.91 -0.59,-1.86 -0.88,-2.91 -0.24,1 -0.51,1.9 -0.79,2.8 -0.28,0.83 -0.54,1.65 -0.86,2.33l-4.67 10.46zm20.5 17.92l-5.15 -11.74 -18.07 0 -5.29 11.74 -7.81 0 22.11 -47.44 22.06 47.44 -7.85 0z"/>
  <polygon class="fil0" points="1796.87,2120.1 1796.87,2074.5 1804.3,2074.5 1804.3,2113.46 1820.85,2113.46 1820.85,2120.1 "/>
  <path class="fil0" d="M1834.29 2113.39l6.24 0c3.42,0 6,-0.25 7.7,-0.68 1.72,-0.44 3.21,-1.21 4.5,-2.29 1.74,-1.49 3,-3.29 3.87,-5.49 0.86,-2.22 1.28,-4.76 1.28,-7.68 0,-2.89 -0.41,-5.46 -1.28,-7.64 -0.87,-2.21 -2.14,-4.04 -3.87,-5.53 -1.32,-1.07 -2.83,-1.78 -4.67,-2.26 -1.76,-0.47 -4.57,-0.71 -8.39,-0.71l-2.71 0 -2.67 0 0 32.28zm-7.43 6.71l0 -45.63 10.03 0c6.5,0 11.06,0.35 13.71,0.97 2.63,0.69 4.96,1.78 6.96,3.32 2.67,2 4.64,4.6 6.02,7.76 1.36,3.13 2.04,6.75 2.04,10.81 0,4.04 -0.68,7.64 -2.04,10.76 -1.37,3.12 -3.35,5.71 -6.02,7.72 -2,1.54 -4.25,2.63 -6.8,3.32 -2.53,0.64 -6.52,0.96 -11.88,0.96l-1.98 0 -10.03 0z"/>
  <polygon class="fil0" points="1874.26,2074.48 1881.7,2074.48 1881.7,2120.1 1874.26,2120.1 "/>
  <path class="fil0" d="M1906.78 2121.86l-20.32 -47.39 7.67 0 10.25 24.31c0.57,1.42 1.1,2.72 1.47,3.92 0.37,1.17 0.72,2.35 0.93,3.42 0.28,-1.15 0.63,-2.32 1.04,-3.57 0.42,-1.22 0.89,-2.49 1.46,-3.76l10.18 -24.31 7.67 0 -20.35 47.39z"/>
  <polygon class="fil0" points="1931.74,2120.1 1931.74,2074.5 1957.2,2074.5 1957.2,2080.78 1939.17,2080.78 1939.17,2092.18 1957.2,2092.18 1957.2,2098.71 1939.17,2098.71 1939.17,2113.46 1957.2,2113.46 1957.2,2120.1 "/>
  <path class="fil0" d="M1963.1 2110.97l5.91 -2.72c0.56,1.97 1.59,3.56 3.08,4.65 1.51,1.07 3.42,1.58 5.74,1.58 2.21,0 3.97,-0.61 5.25,-1.82 1.31,-1.21 1.93,-2.87 1.93,-4.94 0,-2.68 -2.2,-5.06 -6.65,-7.15 -0.63,-0.32 -1.08,-0.53 -1.43,-0.67 -5.04,-2.5 -8.36,-4.71 -10.06,-6.69 -1.65,-1.96 -2.48,-4.41 -2.48,-7.28 0,-3.69 1.25,-6.69 3.76,-9 2.51,-2.33 5.85,-3.46 9.96,-3.46 3.35,0 6.15,0.64 8.43,1.91 2.25,1.33 3.83,3.18 4.69,5.63l-5.79 2.99c-0.92,-1.44 -1.92,-2.53 -3.02,-3.14 -1.09,-0.71 -2.35,-1 -3.74,-1 -2,0 -3.59,0.49 -4.78,1.54 -1.17,1.04 -1.75,2.42 -1.75,4.19 0,2.72 2.54,5.28 7.74,7.64 0.38,0.17 0.71,0.33 0.94,0.46 4.49,2.06 7.56,4.1 9.25,6.06 1.71,1.99 2.53,4.47 2.53,7.46 0,4.3 -1.35,7.72 -4.08,10.28 -2.7,2.57 -6.38,3.83 -11.02,3.83 -3.87,0 -7.07,-0.92 -9.54,-2.68 -2.5,-1.79 -4.13,-4.33 -4.88,-7.67z"/>
  <path class="fil0" d="M514.28 1600.65c-3.13,-21.39 -5.85,-41.65 -9.02,-61.86 -17.4,-110.82 -56.3,-214.08 -109.71,-312.29 -62.9,-115.71 -140.67,-221.13 -224.21,-322.42 -26.47,-32.07 -53.68,-63.51 -82.5,-97.47 583.28,213.87 1164.48,425.81 1743.14,644.52 -28,-3.67 -55.75,-8.18 -83.68,-10.78 -69.15,-6.33 -138.46,-4.61 -207.72,-0.76 -176.44,9.69 -351.32,32.96 -525.44,62.21 -82.09,13.72 -164.08,28.33 -245.76,44.47 -81.32,16.04 -162.17,34.52 -243.24,51.88 -3.59,0.78 -7.2,1.54 -11.86,2.5z"/>
  <path class="fil0" d="M1639.73 1347.24c-348.5,-128.96 -696.97,-257.92 -1045.43,-386.82l0.12 -2.04c15.64,-3.09 31.3,-6.15 46.93,-9.24 90.19,-17.72 180.37,-35.56 270.65,-53.02 4.53,-0.86 10.4,0.53 14.48,2.87 15.75,9.14 31.06,19.13 46.93,29.02 4.6,-19.58 8.27,-38.39 13.49,-56.74 24.87,-87.42 75.35,-157.33 147.08,-212.14 108.85,-83.1 232.52,-120.94 368.76,-119.21 57.75,0.71 111.5,16.64 161.37,45.75 9.65,5.64 19.7,10.54 29.61,15.72 2.29,1.15 4.78,1.87 7.19,2.82 0.48,-0.76 1,-1.47 1.53,-2.2 -2.5,-2.69 -4.74,-5.72 -7.54,-8.08 -69.67,-58.53 -150.73,-83.07 -240.9,-80.33 -92.69,2.79 -179.69,26.69 -260.87,71.28 -80.61,44.29 -141.29,108.74 -187.9,187.14 -6.17,10.42 -11.94,21.07 -19.47,30.88 1.85,-4.09 3.76,-8.13 5.62,-12.2 33.15,-72.48 84.99,-129.18 148.28,-176.47 57.19,-42.75 119.37,-75.94 186.6,-99.83 3.04,-1.07 5.94,-2.49 8.42,-4.83 -72.67,7.1 -133.09,42.96 -191.94,82.56 -0.54,-0.96 -1.14,-1.85 -1.7,-2.82 22.85,-15.76 45.18,-32.36 68.71,-47.11 70.72,-44.38 149.68,-63.96 231.37,-74.57 73,-9.51 144.29,-3.33 211.63,27.57 107.76,49.33 189.47,125.94 240.42,234.21 38.5,81.76 63.18,167.79 81.61,255.9 5.91,28.26 12.37,56.46 16.44,84.98 4.68,32.7 0.72,64.89 -9.47,96.56 -3.83,11.97 -4.37,25.01 -5.67,37.64 -1.97,19.15 -7.46,36.64 -17.49,53.44 -8.8,14.75 -15.56,31.04 -21.22,47.35 -8.33,24.03 -21.18,44.69 -40.42,61.83 3.85,-10.52 7.68,-20.99 11.53,-31.49 -1.11,-0.58 -2.18,-1.13 -3.29,-1.69 -11.43,17.72 -22.89,35.5 -34.32,53.22 -0.31,-0.14 -0.65,-0.26 -0.93,-0.39 1.35,-4.24 2.7,-8.46 4.04,-12.69 -0.47,-0.57 -0.97,-1.15 -1.48,-1.71 -3.76,2.4 -7.53,4.85 -11.28,7.25 4.36,-15.86 8.76,-31.8 13.11,-47.75 -1.56,-0.53 -3.14,-1.1 -4.75,-1.6 -7.7,18.32 -15.4,36.61 -22.13,52.68 -6.07,1.91 -10.25,3.22 -14.92,4.67 1.67,-4.92 3.32,-9.89 5.02,-14.89 -0.72,-0.46 -1.49,-0.99 -2.21,-1.47 -13.71,15.42 -27.44,30.79 -41.15,46.15 -1.74,-1.2 -3.43,-2.35 -5.15,-3.54 0.57,-4.86 0.37,-10.04 1.96,-14.57 3.8,-10.81 7.51,-21.84 12.93,-31.83 41.26,-75.79 69.54,-155.92 80.28,-241.74 10.51,-84.41 0.72,-166.74 -26.06,-247.26 -17.2,-51.74 -38.35,-102.07 -65.86,-148.86 -53.96,-91.78 -132.81,-150.71 -239.29,-169.02 -160.99,-27.65 -365.92,30.35 -488.17,174.21 -43.03,50.67 -73.72,107.35 -83.8,173.92 -3.33,21.86 -3.64,21.91 15.24,33.72 212.52,133 425.05,265.97 637.58,398.96 2.32,1.47 4.56,3.11 6.83,4.68 -0.31,0.4 -0.65,0.74 -0.96,1.17z"/>
  <path class="fil0" d="M1986.27 1485.93c-447.35,13.04 -886.43,87.37 -1323.31,182.08 10.72,-5.97 21.2,-12.54 32.24,-17.83 19.58,-9.36 39.1,-19.11 59.39,-26.61 37.79,-13.97 75.57,-28.25 114.28,-39.03 39.7,-11.14 80.25,-19.85 120.89,-26.82 86.93,-14.89 173.89,-29.97 261.33,-41.22 115.28,-14.93 231.29,-22.42 347.53,-25.03 125.47,-2.83 250.96,-3.78 376.49,-5.54 3.74,-0.02 7.44,0 11.18,0z"/>
  <path class="fil0" d="M504.02 2120.1l0 -47.42 28.96 27.9c0.8,0.75 1.6,1.59 2.42,2.53 0.8,0.86 1.67,1.89 2.53,3l0 -31.61 6.87 0 0 47.36 -29.54 -28.4c-0.8,-0.72 -1.56,-1.52 -2.32,-2.41 -0.74,-0.85 -1.42,-1.75 -2.11,-2.67l0 31.71 -6.81 0z"/>
  <path class="fil0" d="M564.9 2102.19l12.72 0 -4.67 -10.46c-0.29,-0.63 -0.57,-1.4 -0.87,-2.22 -0.28,-0.91 -0.57,-1.86 -0.86,-2.91 -0.24,1 -0.53,1.9 -0.81,2.8 -0.26,0.83 -0.54,1.65 -0.85,2.33l-4.67 10.46zm20.5 17.92l-5.17 -11.74 -18.08 0 -5.28 11.74 -7.81 0 22.08 -47.44 22.06 47.44 -7.8 0z"/>
  <polygon class="fil0" points="608.77,2080.78 608.77,2120.11 601.34,2120.11 601.34,2080.78 589.24,2080.78 589.24,2074.46 620.82,2074.46 620.82,2080.78 "/>
  <polygon class="fil0" points="626.61,2074.48 634.03,2074.48 634.03,2120.1 626.61,2120.1 "/>
  <path class="fil0" d="M683.71 2097.41c0,-2.32 -0.4,-4.54 -1.24,-6.58 -0.87,-2.1 -2.08,-3.96 -3.67,-5.56 -1.52,-1.58 -3.28,-2.83 -5.32,-3.71 -2,-0.82 -4.19,-1.28 -6.4,-1.28 -2.25,0 -4.39,0.46 -6.43,1.28 -2,0.83 -3.79,2.13 -5.38,3.71 -1.61,1.58 -2.78,3.42 -3.61,5.52 -0.87,2.08 -1.24,4.3 -1.24,6.62 0,2.26 0.36,4.47 1.24,6.54 0.83,2.01 2,3.87 3.61,5.5 1.59,1.63 3.38,2.86 5.38,3.72 2,0.81 4.15,1.26 6.43,1.26 2.21,0 4.33,-0.46 6.32,-1.26 2,-0.86 3.85,-2.09 5.41,-3.72 1.58,-1.63 2.79,-3.49 3.67,-5.54 0.83,-2.07 1.24,-4.28 1.24,-6.5zm7.74 0c0,3.25 -0.61,6.26 -1.82,9.18 -1.21,2.92 -3.03,5.47 -5.33,7.71 -2.33,2.29 -4.97,3.97 -7.9,5.22 -2.99,1.2 -6.06,1.79 -9.31,1.79 -3.28,0 -6.43,-0.59 -9.4,-1.79 -2.97,-1.25 -5.64,-2.97 -7.87,-5.22 -2.35,-2.24 -4.11,-4.79 -5.33,-7.67 -1.17,-2.87 -1.79,-5.96 -1.79,-9.22 0,-3.29 0.63,-6.37 1.79,-9.29 1.22,-2.85 2.98,-5.44 5.33,-7.69 2.3,-2.28 4.94,-4 7.91,-5.24 2.93,-1.17 6.04,-1.71 9.36,-1.71 3.28,0 6.4,0.54 9.35,1.71 2.92,1.24 5.54,2.96 7.86,5.24 2.31,2.29 4.13,4.86 5.33,7.78 1.21,2.92 1.82,5.96 1.82,9.21z"/>
  <path class="fil0" d="M699.95 2120.1l0 -47.42 28.94 27.9c0.82,0.75 1.61,1.59 2.43,2.53 0.81,0.86 1.67,1.89 2.56,3l0 -31.61 6.86 0 0 47.36 -29.56 -28.4c-0.79,-0.72 -1.56,-1.52 -2.32,-2.41 -0.72,-0.85 -1.42,-1.75 -2.07,-2.67l0 31.71 -6.85 0z"/>
 </g>
</svg>
